<?xml version="1.0" encoding="UTF-8"?>
<!DOCTYPE svg PUBLIC "-//W3C//DTD SVG 1.1//EN" "http://www.w3.org/Graphics/SVG/1.1/DTD/svg11.dtd">
<!-- Creator: CorelDRAW SE -->
<svg xmlns="http://www.w3.org/2000/svg" xml:space="preserve" width="100mm" height="23.819mm" version="1.1" style="shape-rendering:geometricPrecision; text-rendering:geometricPrecision; image-rendering:optimizeQuality; fill-rule:evenodd; clip-rule:evenodd"
viewBox="0 0 10000 2382"
 xmlns:xlink="http://www.w3.org/1999/xlink">
 <defs>
  <style type="text/css">
   <![CDATA[
    .fil0 {fill:#FEFEFE;fill-rule:nonzero}
    .fil1 {fill:#EBECEC;fill-rule:nonzero}
   ]]>
  </style>
 </defs>
 <g id="Warstwa_x0020_1">
  <metadata id="CorelCorpID_0Corel-Layer"/>
  <path class="fil0" d="M301 1124c186,0 299,-115 311,-318l-123 0c-13,134 -75,200 -188,200 -104,0 -176,-67 -176,-209l0 -452c0,-143 69,-211 171,-211 112,0 176,64 185,202l124 0c-11,-206 -124,-319 -307,-319 -179,0 -298,117 -298,328l0 452c0,211 121,327 301,327zm768 -840c-98,0 -167,44 -208,116l-17 -98 -90 0 0 803 119 0 0 -491c0,-136 71,-214 177,-214 40,0 72,6 101,17l0 -122c-24,-8 -50,-11 -82,-11zm584 18l-161 545 -184 -545 -126 0 258 721 -43 142c-20,66 -41,114 -107,114l-46 0 0 116 66 0c116,0 168,-84 205,-210l262 -883 -124 0zm515 -18c-75,0 -145,38 -185,92l-12 -75 -90 0 0 1079 117 0 0 -333c43,49 106,77 170,77 156,0 253,-109 253,-306l0 -224c0,-200 -103,-310 -253,-310zm131 534c0,135 -52,193 -152,193 -92,0 -149,-77 -149,-193l0 -227c0,-131 65,-196 149,-196 96,0 152,60 152,199l0 224zm561 184c-87,0 -126,-49 -126,-145l0 -445 156 0 0 -110 -156 0 0 -187 -119 0 0 187 -119 0 0 110 119 0 0 445c0,160 87,258 242,258l50 0 0 -113 -47 0zm436 122c168,0 275,-106 275,-298l0 -246c0,-192 -107,-298 -275,-298 -168,0 -276,106 -276,298l0 246c0,192 108,298 276,298zm0 -116c-96,0 -154,-57 -154,-182l0 -246c0,-125 58,-180 154,-180 96,0 154,55 154,180l0 246c0,125 -58,182 -154,182zm802 97l255 0c201,0 322,-119 322,-323l0 -422c0,-204 -119,-323 -324,-323l-253 0 0 1068zm125 -119l0 -830 130 0c126,0 197,70 197,207l0 414c0,139 -72,209 -197,209l-130 0zm872 -704c-156,0 -258,94 -264,240l120 0c6,-81 63,-124 141,-124 91,0 135,58 135,164l0 70 -137 0c-175,0 -284,86 -284,244 0,155 104,249 251,249 90,0 148,-41 183,-96l9 76 99 0 0 -545c0,-174 -91,-278 -253,-278zm132 590c0,84 -56,142 -148,142 -91,0 -151,-48 -151,-136 0,-90 57,-139 161,-139l138 0 0 133zm536 253c158,0 258,-93 258,-230 0,-286 -404,-220 -404,-390 0,-68 49,-111 131,-111 90,0 139,53 141,140l117 0c-3,-149 -98,-252 -258,-252 -153,0 -252,87 -252,222 0,273 405,211 405,389 0,73 -52,118 -139,118 -102,0 -156,-60 -157,-148l-120 0c2,151 106,262 278,262zm712 -843c-87,0 -151,43 -193,110l0 -387 -119 0 0 1100 119 0 0 -491c0,-138 65,-217 161,-217 88,0 131,64 131,227l0 481 119 0 0 -487c0,-232 -79,-336 -218,-336zm687 0c-64,0 -127,28 -170,77l0 -359 -117 0 0 1105 90 0 12 -74c40,55 110,93 185,93 149,0 253,-110 253,-310l0 -226c0,-197 -97,-306 -253,-306zm131 532c0,137 -56,197 -153,197 -84,0 -148,-63 -148,-196l0 -227c0,-116 57,-193 148,-193 101,0 153,58 153,193l0 226zm548 310c168,0 275,-106 275,-298l0 -246c0,-192 -107,-298 -275,-298 -168,0 -276,106 -276,298l0 246c0,192 108,298 276,298zm0 -116c-96,0 -154,-57 -154,-182l0 -246c0,-125 58,-180 154,-180 96,0 154,55 154,180l0 246c0,125 -58,182 -154,182zm692 -726c-156,0 -258,94 -264,240l120 0c6,-81 63,-124 141,-124 91,0 136,58 136,164l0 70 -138 0c-175,0 -284,86 -284,244 0,155 104,249 251,249 90,0 148,-41 183,-96l9 76 99 0 0 -545c0,-174 -91,-278 -253,-278zm133 590c0,84 -57,142 -148,142 -92,0 -152,-48 -152,-136 0,-90 57,-139 161,-139l139 0 0 133zm624 -588c-98,0 -166,44 -208,116l-16 -98 -90 0 0 803 119 0 0 -491c0,-136 70,-214 177,-214 39,0 72,6 101,17l0 -122c-25,-8 -51,-11 -83,-11zm592 -284l0 359c-42,-49 -105,-77 -169,-77 -156,0 -253,109 -253,306l0 226c0,200 103,310 253,310 75,0 145,-38 185,-93l12 74 90 0 0 -1105 -118 0zm0 815c0,133 -64,196 -148,196 -96,0 -152,-60 -152,-197l0 -226c0,-135 52,-193 152,-193 92,0 148,77 148,193l0 227z"/>
  <path class="fil1" d="M5127 2030c24,-43 52,-78 85,-104 33,-27 62,-41 89,-41 15,0 27,7 37,21 10,13 15,30 15,49 0,58 -21,112 -65,162 -43,51 -89,76 -137,76 -13,0 -25,-4 -37,-11 -10,-7 -17,-16 -18,-27 -1,-8 -3,-15 -7,-19 -8,-8 -12,-17 -12,-26 0,-16 4,-53 14,-108l28 -166c10,-55 17,-90 22,-103 4,-13 9,-22 15,-26 5,-5 12,-7 20,-7 13,0 20,11 20,34 0,21 -7,51 -22,89 -13,37 -29,106 -47,207zm-7 93c10,18 22,27 35,27 21,0 44,-9 67,-26 24,-18 44,-43 61,-74 17,-32 26,-59 26,-81 0,-9 -2,-18 -6,-25 -3,-7 -7,-11 -13,-11 -26,0 -57,22 -94,64 -37,42 -62,84 -76,126zm492 -33c-34,30 -64,51 -90,65 -25,13 -45,20 -59,20 -18,0 -32,-8 -42,-23 -10,-15 -15,-33 -15,-53 0,-29 6,-64 18,-106 11,-42 20,-67 26,-75 5,-7 14,-11 27,-11 5,0 9,3 13,9 3,6 5,13 5,21 0,4 -3,10 -7,18 -10,17 -15,27 -16,28 0,2 -4,13 -10,34 -7,20 -10,40 -10,58 0,6 1,16 4,29 3,13 10,20 19,20 11,0 23,-3 38,-9 15,-7 32,-17 50,-31 19,-14 32,-25 38,-34 7,-9 11,-18 14,-30 3,-11 4,-35 6,-72 1,-37 10,-55 26,-55 10,0 17,2 20,8 3,5 4,15 4,30 0,12 0,27 -2,46 -2,23 -4,39 -4,49 -3,51 -9,102 -20,153 -10,52 -26,95 -46,129 -21,35 -49,52 -85,52 -36,0 -68,-10 -96,-29 -28,-18 -43,-34 -43,-48 0,-6 2,-12 5,-18 3,-6 6,-9 11,-9 2,0 4,2 7,6 24,37 62,55 114,55 27,0 50,-23 68,-70 18,-47 28,-92 30,-133 0,-8 1,-16 2,-24zm463 -240c-3,6 -8,26 -15,61 -7,34 -10,62 -10,86 13,-3 26,-4 39,-6l59 -6c9,-2 22,-5 39,-9 17,-4 28,-7 34,-7 22,0 33,9 33,27 0,3 -3,8 -9,13 -7,6 -15,9 -25,12 -10,2 -35,5 -74,9 -49,6 -77,10 -86,13 -9,3 -14,6 -16,9 -2,2 -3,16 -5,40 -2,24 -3,43 -3,58l1 35c0,19 -7,28 -21,28 -8,0 -16,-3 -23,-10 -7,-6 -11,-15 -11,-26 0,-43 11,-133 32,-271 5,-32 7,-50 7,-52 0,-4 -1,-9 -3,-16 -3,-9 -5,-16 -5,-19 0,-5 3,-11 9,-16 5,-6 11,-9 16,-9l36 4c12,0 32,-2 63,-6 52,-6 88,-9 108,-9 17,0 29,3 36,8 8,5 11,10 11,15 0,9 -3,17 -9,23 -6,6 -12,10 -19,10 -3,0 -6,-1 -10,-2 -20,-3 -36,-5 -46,-5 -20,0 -46,2 -77,6 -32,3 -50,7 -56,12zm322 -33c-4,0 -7,-5 -9,-13 -1,-2 -2,-5 -3,-9 -5,-11 -8,-22 -8,-31 0,-7 5,-15 14,-22 8,-8 18,-12 29,-12 5,0 11,2 18,6 7,4 10,8 10,12 0,6 -2,17 -7,31 -4,15 -12,25 -22,30 -9,5 -17,8 -22,8zm-37 310c0,14 2,30 6,47 1,4 1,6 1,9 0,3 -3,7 -9,12 -6,6 -12,8 -19,8 -18,0 -27,-16 -27,-49 0,-34 7,-88 21,-162 5,-25 7,-41 7,-47 0,-12 2,-22 7,-30 4,-8 10,-12 18,-12 9,0 16,2 22,6 5,5 8,10 8,16 0,5 -1,13 -4,22 -14,48 -22,83 -26,105 -3,21 -5,46 -5,75zm209 -409c13,0 20,9 20,26 0,15 -8,51 -24,108 -10,36 -18,76 -24,119 -5,43 -8,77 -8,102 0,30 2,61 6,91 0,6 1,10 1,12 0,10 -3,18 -10,24 -6,7 -13,10 -20,10 -9,0 -16,-6 -20,-18 -4,-12 -6,-32 -6,-59 0,-62 8,-139 23,-231 15,-91 26,-145 35,-160 9,-16 18,-24 27,-24zm155 99c-4,0 -7,-5 -9,-13 -1,-2 -2,-5 -3,-9 -5,-11 -8,-22 -8,-31 0,-7 5,-15 14,-22 8,-8 18,-12 29,-12 5,0 11,2 18,6 7,4 10,8 10,12 0,6 -2,17 -7,31 -4,15 -12,25 -21,30 -10,5 -18,8 -23,8zm-37 310c0,14 2,30 6,47 1,4 1,6 1,9 0,3 -3,7 -9,12 -6,6 -12,8 -19,8 -18,0 -27,-16 -27,-49 0,-34 7,-88 21,-162 5,-25 7,-41 7,-47 0,-12 2,-22 7,-30 4,-8 10,-12 18,-12 9,0 17,2 22,6 6,5 8,10 8,16 0,5 -1,13 -4,22 -14,48 -22,83 -25,105 -4,21 -6,46 -6,75zm165 29c-9,34 -17,80 -25,140l-8 53c-1,7 -5,15 -10,22 -6,7 -11,11 -15,11 -6,0 -13,-3 -20,-9 -7,-6 -11,-10 -11,-14 0,-10 2,-24 7,-42 34,-137 51,-257 51,-360l-1 -24c0,-20 4,-34 11,-43 7,-9 16,-14 26,-14 4,0 8,4 12,10 4,7 6,17 6,30 0,18 -1,40 -5,65 -5,32 -7,51 -8,56 28,-48 57,-86 88,-113 31,-27 60,-41 86,-41 19,0 35,8 48,21 12,14 19,32 19,53 0,60 -23,115 -70,164 -46,49 -91,74 -135,74 -11,0 -19,-3 -26,-9 -6,-5 -13,-15 -20,-30zm173 -223c-26,0 -59,24 -97,73 -39,49 -58,87 -58,114 0,7 4,13 12,19 7,7 17,10 28,10 27,0 57,-20 92,-59 34,-39 51,-77 51,-115 0,-14 -2,-24 -8,-31 -5,-8 -12,-11 -20,-11zm635 28c0,3 2,5 5,6 20,6 38,17 53,34 16,16 23,36 23,59 0,35 -22,71 -67,108 -45,37 -92,55 -141,55 -14,0 -25,-2 -33,-5 -8,-4 -12,-8 -12,-13 0,-23 17,-35 50,-35 5,0 12,0 21,1 10,0 21,-2 34,-7 13,-6 25,-12 37,-20 12,-8 22,-17 31,-25 9,-9 16,-18 21,-27 5,-10 8,-20 8,-30 0,-16 -7,-30 -21,-42 -14,-13 -32,-19 -55,-19 -4,0 -13,3 -26,9 -14,6 -23,9 -28,9 -14,0 -23,-2 -27,-5 -3,-4 -5,-11 -5,-20 0,-6 16,-15 47,-28 26,-10 51,-27 76,-51 24,-23 37,-43 37,-59 0,-12 -5,-21 -14,-27 -10,-7 -23,-10 -39,-10 -28,0 -55,3 -82,10 -28,7 -43,13 -45,19 -3,6 -11,51 -23,135 -12,83 -19,132 -19,145 0,13 1,25 1,36 1,11 -1,21 -6,29 -4,8 -12,12 -23,12 -10,0 -18,-4 -23,-12 -5,-8 -8,-18 -8,-30 0,-3 1,-8 2,-14 10,-40 19,-91 28,-153 8,-62 12,-98 12,-107 0,-8 -1,-14 -3,-17 -2,-4 -7,-6 -14,-6 -3,0 -6,0 -9,0 -3,0 -6,-1 -9,-5 -3,-4 -4,-8 -4,-13 0,-17 26,-33 78,-48 53,-16 106,-24 160,-24 28,0 51,8 68,22 18,15 27,33 27,53 0,15 -8,32 -23,52 -15,20 -35,40 -60,58zm347 107c-23,39 -48,70 -72,92 -25,22 -48,33 -70,33 -12,0 -24,-7 -37,-22 -13,-14 -19,-36 -19,-65 0,-25 6,-60 18,-108 9,-39 14,-67 14,-83 6,-11 14,-16 26,-16 7,0 14,3 18,8 5,5 7,11 7,17 0,13 -4,31 -13,55 -18,47 -26,87 -26,120 0,30 7,45 21,45 18,0 41,-15 68,-45 28,-31 52,-73 72,-128 7,-22 14,-36 19,-43 5,-6 11,-10 20,-10 12,0 19,9 19,25 0,2 -2,9 -6,21 -11,40 -16,79 -16,115 0,43 7,71 21,84 7,7 11,12 11,16 0,6 -4,10 -11,15 -8,4 -14,6 -21,6 -13,0 -23,-10 -31,-29 -8,-19 -12,-48 -12,-85l0 -9c0,-3 0,-6 0,-9zm205 -9c2,-3 19,-18 50,-45 29,-25 49,-44 60,-55 43,-43 74,-64 93,-64 14,0 21,7 21,20 0,16 -7,28 -21,35 -19,10 -43,25 -74,47 -31,22 -47,38 -47,47 0,3 11,17 33,41 22,24 41,42 57,53 16,12 31,17 46,17l9 0c7,0 10,3 10,9 0,8 -5,16 -15,24 -10,9 -24,13 -40,13 -11,0 -22,-4 -33,-11 -11,-8 -31,-28 -59,-61 -22,-27 -36,-43 -42,-48 -5,-6 -10,-8 -14,-8 -2,0 -8,4 -19,14 -11,10 -17,17 -18,22 -1,5 -1,24 -1,57l0 13c0,7 -4,13 -10,19 -7,5 -14,8 -21,8 -8,0 -14,-3 -19,-7 -4,-5 -6,-9 -6,-14 0,-7 2,-23 7,-47 7,-36 14,-84 20,-144 13,-142 24,-222 31,-240 8,-19 18,-28 32,-28 5,0 9,2 12,8 3,5 5,11 5,20 0,14 -6,54 -19,118 -13,64 -22,126 -28,187zm363 143c-25,0 -46,-9 -62,-29 -17,-19 -25,-43 -25,-71 0,-48 16,-95 48,-141 32,-47 71,-70 116,-70 29,0 53,12 72,34 18,23 27,50 27,82 0,48 -19,92 -57,134 -38,41 -77,61 -119,61zm-38 -107c0,19 4,34 12,46 7,11 18,17 31,17 27,0 55,-15 83,-45 28,-30 42,-64 42,-101 0,-23 -6,-41 -16,-55 -11,-14 -25,-22 -43,-22 -30,0 -56,19 -77,55 -21,37 -32,72 -32,105zm499 -90c-5,0 -18,21 -38,64 -16,36 -33,67 -50,95 -17,28 -29,41 -37,41 -23,0 -44,-34 -64,-102 -19,-68 -29,-123 -29,-165 0,-13 3,-24 10,-33 7,-9 15,-14 24,-15 1,0 4,0 7,0 3,1 7,4 12,10 5,5 7,11 7,17l0 1c0,2 -1,11 -3,27 -1,12 -2,27 -2,45 0,27 5,58 16,91 10,33 19,50 26,50 5,0 23,-28 52,-84 18,-36 31,-61 39,-74l9 -17c13,-24 25,-41 36,-51 16,2 24,10 24,24 0,5 0,9 -1,12 -1,3 -1,7 -1,12 0,34 9,70 27,107 17,38 30,56 38,56 5,0 14,-19 26,-58 16,-54 31,-94 45,-120 14,-27 24,-43 31,-48 6,-5 13,-7 22,-7 4,0 8,2 11,6 4,4 5,8 5,13 0,6 -1,11 -3,14 -23,30 -45,77 -66,141 -18,55 -30,90 -37,104 -7,14 -12,21 -16,21 -23,0 -41,-9 -55,-25 -15,-16 -34,-60 -57,-130 -3,-9 -6,-16 -8,-22zm370 -188c-3,0 -6,-5 -8,-13 -1,-2 -2,-5 -3,-9 -6,-11 -8,-22 -8,-31 0,-7 4,-15 13,-22 9,-8 19,-12 29,-12 6,0 12,2 19,6 6,4 10,8 10,12 0,6 -3,17 -7,31 -5,15 -12,25 -22,30 -10,5 -17,8 -23,8zm-36 310c0,14 2,30 6,47 1,4 1,6 1,9 0,3 -3,7 -9,12 -6,6 -13,8 -20,8 -18,0 -26,-16 -26,-49 0,-34 7,-88 21,-162 4,-25 7,-41 7,-47 0,-12 2,-22 6,-30 4,-8 10,-12 18,-12 10,0 17,2 23,6 5,5 8,10 8,16 0,5 -1,13 -4,22 -14,48 -23,83 -26,105 -3,21 -5,46 -5,75zm349 -33c0,19 -17,42 -50,69 -33,26 -68,39 -104,39 -29,0 -52,-8 -69,-26 -16,-17 -24,-42 -24,-73 0,-53 18,-104 54,-151 36,-48 75,-72 117,-72 14,0 25,4 34,14 9,9 13,20 13,32 0,29 -14,56 -42,82 -28,26 -65,52 -112,77 -10,5 -14,12 -14,20 0,15 4,27 13,36 9,10 22,14 39,14 40,0 81,-22 122,-66 6,-6 11,-9 14,-9 6,0 9,5 9,14zm-193 -43c79,-47 118,-84 118,-113 0,-11 -5,-16 -15,-16 -17,0 -36,12 -58,37 -21,25 -36,56 -45,92zm327 153c-28,0 -49,-8 -64,-24 -15,-16 -23,-38 -23,-67 0,-48 20,-99 58,-152 38,-54 74,-81 107,-81 15,0 28,8 39,24 10,17 16,34 16,52 0,11 -2,20 -7,28 -5,8 -10,12 -15,12 -10,0 -18,-11 -22,-33 -5,-23 -13,-34 -22,-34 -19,0 -42,22 -68,68 -27,46 -40,84 -40,116 0,31 18,47 54,47 27,0 59,-13 96,-38 13,-9 22,-14 29,-14 6,0 9,4 9,11 0,14 -17,32 -50,53 -33,21 -65,32 -97,32z"/>
 </g>
</svg>
